# xmcd
#
# Track frame offsets: 
#        150
#        10951
#        21780
#        38833
#        50316
#        62192
#        74417
#        88225
#        101428
#        113563
#        123698
#        137082
#        148218
#        161218
#        168985
#        180521
#        190025
#        204976
#        218060
#        236186
#
# Disc length: 3361 seconds
#
# Revision: 0
# Processed by: cddbd v1.5.2PL0 Copyright (c) Steve Scherf et al.
# Submitted via: ExactAudioCopy v1.3
#
DISCID=230d1f14
DTITLE=Various Artist - Country Ladies The Album CD1
DYEAR=2006
DGENRE=Country
TTITLE0=Dolly Parton - 01 Honky Tonk Angels
TTITLE1=Billy jo Spears - 02 All I Have to Do
TTITLE2=Linda Ronstadt - 03 Break My Mind
TTITLE3=Melba Montgomery - 04 How can I Keep from Loving You
TTITLE4=Skeeter Davis - 05 End Of The World
TTITLE5=Anne Murray - 06 All The Time
TTITLE6=Patsy Cline - 07 A Church, A Courtroom
TTITLE7=Dottie West - 08 DIVORCE
TTITLE8=Wanda Jackson - 09 What In The Worlds Come ...
TTITLE9=Loretta Lynn - 10 Youre Looking At Country
TTITLE10=Patti Page - 11 Tennessee Waltz
TTITLE11=Jo Ann Houston - 12 The Race Is On
TTITLE12=Connie Smith - 13 Pass Me By If ...
TTITLE13=Susan Raye - 14 I've Got A Happy Heart
TTITLE14=Barbara Fairchild - 15 Cheatin Is
TTITLE15=Donna Fargo - 16 Sticks And Stones
TTITLE16=Jeannie C. Riley - 17 Harper Valley
TTITLE17=Lynn Anderson - 18 Rose Garden
TTITLE18=Jeannie Pruett - 19 Please Play Satin Sheets
TTITLE19=Nancy Wood - 20 Tears In You Eyes
EXTD=
EXTT0=
EXTT1=
EXTT2=
EXTT3=
EXTT4=
EXTT5=
EXTT6=
EXTT7=
EXTT8=
EXTT9=
EXTT10=
EXTT11=
EXTT12=
EXTT13=
EXTT14=
EXTT15=
EXTT16=
EXTT17=
EXTT18=
EXTT19=
PLAYORDER=
